# xmcd
#
# Track frame offsets: 
#        150
#        12152
#        26220
#        32740
#        44335
#        69215
#        87570
#        108150
#        127805
#        142665
#        161142
#        179005
#        195837
#        206195
#        222862
#        247102
#
# Disc length: 3471 seconds
#
# Revision: 4
# Processed by: cddbd v1.5.2PL0 Copyright (c) Steve Scherf et al.
# Submitted via: ExactAudioCopy v0.95b4
#
DISCID=dd0d8d10
DTITLE=Rich Mullins - Songs 2
DYEAR=1999
DGENRE=Contemporary Christian
TTITLE0=Step by Step
TTITLE1=Where You Are
TTITLE2=I Will Sing
TTITLE3=Hope to Carry On
TTITLE4=I See You
TTITLE5=The Just Shall Live
TTITLE6=Somewhere
TTITLE7=Growing Young
TTITLE8=Brother's Keeper
TTITLE9=Home
TTITLE10=Here In America
TTITLE11=Bound to Come Some Trouble
TTITLE12=The Love of God
TTITLE13=Ready for the Storm
TTITLE14=Peace
TTITLE15=Be with You
EXTD=YEAR: 1999 ID3G:   0
EXTT0=
EXTT1=
EXTT2=
EXTT3=
EXTT4=
EXTT5=
EXTT6=
EXTT7=
EXTT8=
EXTT9=
EXTT10=
EXTT11=
EXTT12=
EXTT13=
EXTT14=
EXTT15=
PLAYORDER=
